<svg xmlns="http://www.w3.org/2000/svg" xmlns:xlink="http://www.w3.org/1999/xlink" viewBox="0 0 123.73 71.55"><defs><style>.a{fill:url(#a);}.b{fill:url(#b);}</style><linearGradient id="a" x1="68.6" y1="35.53" x2="68.6" gradientUnits="userSpaceOnUse"><stop offset="0" stop-color="#f9ad00"/><stop offset="0.31" stop-color="#fab602"/><stop offset="0.82" stop-color="#fdcf07"/><stop offset="1" stop-color="#feda09"/></linearGradient><linearGradient id="b" x1="61.86" y1="8.96" x2="61.86" y2="71.55" gradientUnits="userSpaceOnUse"><stop offset="0" stop-color="#3fa9f5"/><stop offset="0.15" stop-color="#4e8ff6"/><stop offset="0.4" stop-color="#636bf8"/><stop offset="0.63" stop-color="#7250fa"/><stop offset="0.84" stop-color="#7b41fb"/><stop offset="1" stop-color="#7e3bfb"/></linearGradient><symbol id="c" viewBox="0 0 123.73 71.55"><path class="a" d="M85.86,9.66A31.33,31.33,0,0,0,61.49,35.53c-.05-.77-.08-1.55-.08-2.33a31.16,31.16,0,0,1,4.77-16.62,28.75,28.75,0,0,0-12.57-2.87c-.76,0-1.52,0-2.27.1A18.78,18.78,0,0,1,85.86,9.66Z"/><path class="b" d="M123.73,40.25a31.3,31.3,0,0,1-51.15,24.2,28.88,28.88,0,0,1-39.69-1.67l0,0a18.77,18.77,0,1,1-6.59-29.58h0A28.87,28.87,0,0,1,51.34,13.81c.75-.07,1.51-.1,2.27-.1a28.75,28.75,0,0,1,12.57,2.87A31.16,31.16,0,0,0,61.41,33.2c0,.78,0,1.56.08,2.33a31.3,31.3,0,0,1,62.16,2.39C123.7,38.69,123.73,39.47,123.73,40.25Z"/></symbol></defs><use width="123.73" height="71.55" xlink:href="#c"/></svg>